<svg xmlns="http://www.w3.org/2000/svg" viewBox="0 0 400 400" width="400" height="400">
  <!-- Background -->
  <rect width="400" height="400" fill="#7FDBDB"/>
  
  <!-- Tubuh Walrus (pear shape) -->
  <ellipse cx="200" cy="240" rx="140" ry="120" fill="#7FDBDB" stroke="#000000" stroke-width="3"/>
  
  <!-- Kepala Walrus -->
  <ellipse cx="200" cy="140" rx="120" ry="110" fill="#7FDBDB" stroke="#000000" stroke-width="3"/>
  
  <!-- Kepala Hitam (Cap) di atas -->
  <path d="M 80 140 Q 80 80, 200 60 Q 320 80, 320 140" fill="#000000" stroke="#000000" stroke-width="2"/>
  
  <!-- Kacamata - Frame Putih -->
  <!-- Lensa Kiri -->
  <rect x="100" y="130" width="70" height="45" rx="5" fill="#000000" stroke="#FFFFFF" stroke-width="4"/>
  <!-- Garis diagonal di lensa kiri -->
  <line x1="110" y1="135" x2="155" y2="165" stroke="#FFFFFF" stroke-width="2" opacity="0.6"/>
  
  <!-- Lensa Kanan -->
  <rect x="230" y="130" width="70" height="45" rx="5" fill="#000000" stroke="#FFFFFF" stroke-width="4"/>
  <!-- Garis diagonal di lensa kanan -->
  <line x1="240" y1="135" x2="285" y2="165" stroke="#FFFFFF" stroke-width="2" opacity="0.6"/>
  
  <!-- Bridge kacamata -->
  <rect x="170" y="148" width="60" height="9" fill="#FFFFFF" stroke="#FFFFFF" stroke-width="2"/>
  
  <!-- Hidung -->
  <ellipse cx="200" cy="195" rx="8" ry="10" fill="#000000"/>
  
  <!-- Mulut (senyum) -->
  <path d="M 170 210 Q 200 225, 230 210" stroke="#000000" stroke-width="3" fill="none" stroke-linecap="round"/>
  
  <!-- Kumis Kiri -->
  <path d="M 80 180 Q 40 175, 20 170" stroke="#000000" stroke-width="2.5" fill="none" stroke-linecap="round"/>
  <path d="M 75 200 Q 30 200, 5 200" stroke="#000000" stroke-width="2.5" fill="none" stroke-linecap="round"/>
  <path d="M 80 220 Q 40 225, 20 235" stroke="#000000" stroke-width="2.5" fill="none" stroke-linecap="round"/>
  
  <!-- Kumis Kanan -->
  <path d="M 320 180 Q 360 175, 380 170" stroke="#000000" stroke-width="2.5" fill="none" stroke-linecap="round"/>
  <path d="M 325 200 Q 370 200, 395 200" stroke="#000000" stroke-width="2.5" fill="none" stroke-linecap="round"/>
  <path d="M 320 220 Q 360 225, 380 235" stroke="#000000" stroke-width="2.5" fill="none" stroke-linecap="round"/>
  
  <!-- Taring Kiri -->
  <path d="M 165 225 Q 160 280, 165 330 Q 168 345, 180 345 Q 185 340, 182 330 Q 178 280, 180 225 Z" fill="#FFFFFF" stroke="#000000" stroke-width="2.5"/>
  
  <!-- Taring Kanan -->
  <path d="M 235 225 Q 240 280, 235 330 Q 232 345, 220 345 Q 215 340, 218 330 Q 222 280, 220 225 Z" fill="#FFFFFF" stroke="#000000" stroke-width="2.5"/>
  
  <!-- Garis vertikal di tengah wajah (detail) -->
  <line x1="200" y1="80" x2="200" y2="220" stroke="#000000" stroke-width="1" opacity="0.3"/>
</svg>
